<svg xmlns="http://www.w3.org/2000/svg" viewBox="0 0 512 512">
  <rect width="512" height="512" rx="112" fill="#050505"/>
  <path d="M256 38 435 141.5v229L256 474 77 370.5v-229L256 38Z" fill="#1a1c1c" stroke="#f0813d" stroke-width="24" stroke-linejoin="round"/>
  <path d="M256 83 396 164v184L256 429 116 348V164L256 83Z" fill="none" stroke="#ffffff" stroke-opacity=".16" stroke-width="10" stroke-linejoin="round"/>
  <path d="M158 188h134c43 0 72 25 72 61 0 39-30 60-75 60h-58c-31 0-49 12-49 34 0 25 23 37 58 37h114" fill="none" stroke="#f0813d" stroke-width="34" stroke-linecap="round" stroke-linejoin="round"/>
  <path d="M354 188H220c-43 0-72 25-72 61 0 39 30 60 75 60h58c31 0 49 12 49 34 0 25-23 37-58 37H158" fill="none" stroke="#ffffff" stroke-width="34" stroke-linecap="round" stroke-linejoin="round"/>
</svg>
